<?xml version="1.0" encoding="iso-8859-1"?>
<!-- Uploaded to: SVG Repo, www.svgrepo.com, Generator: SVG Repo Mixer Tools -->
<svg height="800px" width="800px" version="1.1" id="Layer_1" xmlns="http://www.w3.org/2000/svg" xmlns:xlink="http://www.w3.org/1999/xlink" 
	 viewBox="0 0 511.999 511.999" xml:space="preserve">
<g>
	<path style="fill:#C2DCE0;" d="M218.744,297.676l-4.071-0.892c-7.633-1.673-12.464-9.217-10.792-16.85l6.177-28.184
		c1.673-7.633,9.217-12.464,16.85-10.792l4.071,0.892c7.633,1.673,12.465,9.217,10.792,16.85l-6.176,28.184
		C233.921,294.517,226.377,299.349,218.744,297.676z"/>
	<path style="fill:#C2DCE0;" d="M293.255,297.676l4.071-0.892c7.633-1.673,12.465-9.217,10.793-16.85l-6.177-28.184
		c-1.673-7.633-9.217-12.464-16.85-10.792l-4.071,0.892c-7.633,1.673-12.464,9.217-10.792,16.85l6.176,28.184
		C278.079,294.517,285.623,299.349,293.255,297.676z"/>
</g>
<path style="opacity:0.1;enable-background:new    ;" d="M308.119,279.934l-6.177-28.184c-1.673-7.633-9.217-12.464-16.85-10.792
	l-4.071,0.892c-1.132,0.248-2.193,0.639-3.191,1.127c1.455,20.77,6.081,39.233,13.182,54.99c0.744-0.042,1.493-0.126,2.244-0.29
	l4.071-0.892C304.96,295.111,309.792,287.567,308.119,279.934z"/>
<path style="opacity:0.1;enable-background:new    ;" d="M203.881,279.934l6.176-28.184c1.673-7.633,9.217-12.464,16.85-10.792
	l4.071,0.892c1.132,0.248,2.193,0.639,3.191,1.127c-1.455,20.77-6.081,39.233-13.182,54.99c-0.744-0.042-1.493-0.126-2.244-0.29
	l-4.071-0.892C207.039,295.111,202.207,287.567,203.881,279.934z"/>
<path style="fill:#9D4D59;" d="M221.549,223.065c0-51.137-20.07-64.487-100.562-64.487S20.426,185.603,20.426,241.142
	s45.023,112.279,100.562,112.279S221.549,303.226,221.549,223.065z"/>
<path style="opacity:0.2;enable-background:new    ;" d="M120.988,158.578c80.491,0,100.562,13.35,100.562,64.487
	c0,3.066-0.074,6.082-0.203,9.058c-2.262-44.29-24.417-56.179-100.359-56.179c-75.394,0-97.777,23.711-100.309,72.356
	c-0.163-2.385-0.252-4.773-0.252-7.158C20.426,185.603,40.496,158.578,120.988,158.578z"/>
<path style="opacity:0.1;fill:#FFFFFF;enable-background:new    ;" d="M120.988,158.579c-80.491,0-100.562,27.025-100.562,82.564
	c0,18.152,4.811,36.431,13.225,52.817l133.056-133.056C154.232,159.262,139.153,158.579,120.988,158.579z"/>
<path style="fill:#9D4D59;" d="M290.451,223.065c0-51.137,20.07-64.487,100.562-64.487s100.562,27.025,100.562,82.564
	s-45.023,112.279-100.562,112.279S290.451,303.226,290.451,223.065z"/>
<path style="opacity:0.2;enable-background:new    ;" d="M391.012,158.578c-80.491,0-100.562,13.35-100.562,64.487
	c0,3.066,0.074,6.082,0.203,9.058c2.263-44.29,24.417-56.179,100.359-56.179c75.394,0,97.777,23.711,100.309,72.356
	c0.163-2.385,0.252-4.773,0.252-7.158C491.574,185.603,471.504,158.578,391.012,158.578z"/>
<path style="opacity:0.1;fill:#FFFFFF;enable-background:new    ;" d="M475.395,183.001L329.616,328.781
	c16.986,15.936,38.277,24.64,61.396,24.64c55.539,0,100.562-56.74,100.562-112.279C491.574,215.934,487.438,196.601,475.395,183.001
	z"/>
<path d="M504.11,203.499h-9.097c-3.656-12.67-9.635-22.498-18.23-30.306c-16.901-15.354-44.155-22.505-85.77-22.505H120.986
	c-41.615,0-68.869,7.151-85.77,22.505c-8.595,7.808-14.575,17.636-18.23,30.306H7.89c-4.357,0-7.89,3.533-7.89,7.89
	s3.533,7.89,7.89,7.89h5.914c-0.852,6.641-1.269,13.901-1.269,21.863c0,29.044,11.432,58.974,31.366,82.116
	c21.137,24.539,48.513,38.053,77.086,38.053c30.028,0,57.463-13.515,77.25-38.055c4.788-5.939,9.04-12.396,12.754-19.313
	c0.654,0.209,1.316,0.4,1.991,0.547l4.071,0.892c1.584,0.347,3.178,0.519,4.762,0.519c4.166,0,8.251-1.188,11.842-3.488
	c4.957-3.175,8.381-8.09,9.642-13.841l6.177-28.184c2.602-11.87-4.939-23.644-16.81-26.246l-3.477-0.762
	c0.053-1.115,0.099-2.233,0.135-3.358c0.156-8.034,18.351-10.744,26.674-10.744c8.322,0,26.518,2.71,26.674,10.744
	c0.036,1.125,0.081,2.243,0.135,3.357l-3.477,0.762c-11.87,2.602-19.411,14.376-16.81,26.246l6.177,28.184
	c1.26,5.75,4.685,10.665,9.642,13.84c3.593,2.301,7.678,3.488,11.842,3.488c1.583,0,3.178-0.171,4.761-0.519l4.072-0.892
	c0.675-0.148,1.337-0.339,1.991-0.547c3.715,6.917,7.966,13.374,12.754,19.313c19.788,24.54,47.223,38.055,77.25,38.055
	c28.573,0,55.949-13.514,77.086-38.053c19.934-23.142,31.366-53.072,31.366-82.116c0-7.962-0.418-15.222-1.269-21.863h5.914
	c4.357,0,7.89-3.533,7.89-7.89S508.467,203.499,504.11,203.499z M213.556,229.311c-0.008,0.231-0.014,0.458-0.015,0.676
	c-1.138,33.604-10.617,62.316-27.588,83.363c-16.732,20.752-39.805,32.18-64.966,32.18c-23.908,0-47.038-11.568-65.13-32.571
	c-17.503-20.321-27.542-46.497-27.542-71.818c0-8.156,0.465-15.405,1.42-21.863h2.56c4.357,0,7.89-3.533,7.89-7.89
	c0-3.923-2.866-7.167-6.616-7.778c2.846-7.736,6.892-13.862,12.259-18.737c13.822-12.557,37.704-18.405,75.16-18.405
	c40.576,0,63.362,3.532,76.188,11.807c11.709,7.554,16.484,20.531,16.484,44.79C213.659,225.167,213.619,227.246,213.556,229.311z
	 M229.29,249.557c3.371,0.739,5.513,4.083,4.774,7.454l-6.177,28.184c-0.739,3.372-4.079,5.517-7.454,4.774l-2.694-0.59
	c4.864-12.296,8.249-25.746,10.081-40.143L229.29,249.557z M291.566,289.968c-3.371,0.743-6.714-1.402-7.453-4.774l-6.177-28.184
	c-0.738-3.371,1.403-6.715,4.774-7.454l1.469-0.322c1.833,14.398,5.218,27.847,10.081,40.143L291.566,289.968z M283.219,208.866
	c-1.279-0.595-2.658-1.159-4.155-1.681c-7.795-2.718-17.026-3.686-23.064-3.686c-6.039,0-15.269,0.968-23.064,3.686
	c-1.468,0.511-2.818,1.064-4.077,1.646c-1.482-16.033-6.395-31.83-21.009-42.363h96.267
	C294.739,173.101,285.68,183.884,283.219,208.866z M456.142,312.96c-18.092,21.004-41.222,32.571-65.13,32.571
	c-25.161,0-48.234-11.428-64.966-32.18c-16.971-21.048-26.45-49.759-27.588-83.363c-0.001-0.219-0.006-0.445-0.015-0.676
	c-0.063-2.065-0.103-4.144-0.103-6.246c0-24.259,4.775-37.236,16.484-44.79c12.826-8.276,35.612-11.807,76.188-11.807
	c37.455,0,61.337,5.848,75.16,18.405c5.366,4.875,9.413,11.002,12.259,18.737c-3.75,0.61-6.616,3.856-6.616,7.778
	c0,4.357,3.533,7.89,7.89,7.89h2.56c0.955,6.458,1.42,13.707,1.42,21.863C483.684,266.463,473.646,292.639,456.142,312.96z"/>
</svg>