<?xml version="1.0" encoding="iso-8859-1"?>
<!-- Uploaded to: SVG Repo, www.svgrepo.com, Generator: SVG Repo Mixer Tools -->
<svg height="800px" width="800px" version="1.1" id="Layer_1" xmlns="http://www.w3.org/2000/svg" xmlns:xlink="http://www.w3.org/1999/xlink" 
	 viewBox="0 0 431.941 431.941" xml:space="preserve">
<g transform="translate(0 -1020.36)" shape-rendering="auto" image-rendering="auto" color-rendering="auto" color-interpolation="sRGB">
	<path style="fill:#5A3392;" d="M215.968,1020.36c-8.211,0-16.425,3.188-22.562,9.563c-9.13,9.497-11.6,23.229-7.438,35.093
		l-6.844,3.625l0.128,0.16c-9.038-4.818-19.437-3.057-26.344,2.5c-6.531,5.256-10.164,14.266-8.219,23.563h52v41.719h-40.563
		l5.906,21.125l-17.719,214.656h-16.344c-0.271-0.014-0.542-0.014-0.813,0c-4.122,0.404-7.254,3.889-7.219,8.031v63.875
		c-0.017,4.418,3.552,8.014,7.97,8.031c0.02,0,0.041,0,0.061,0h176c4.419,0.018,8.014-3.551,8.031-7.971c0-0.02,0-0.041,0-0.061
		v-63.875c0.017-4.418-3.552-8.014-7.97-8.031c-0.02,0-0.041,0-0.061,0h-16.344l-17.844-214.656l17.281-61.25
		c2.773-9.859-1.125-19.598-8.031-25.156c-6.907-5.557-17.275-7.314-26.312-2.5v-0.16l-6.75-3.594
		c4.192-11.881,1.718-25.623-7.437-35.125c-6.137-6.379-14.352-9.563-22.563-9.563H215.968z"/>
	<path style="fill:#EE746C;" d="M215.978,1035.952c3.902,0,7.82,1.634,11,4.934c4.149,4.305,5.409,10.566,4.281,16.342l-4.063-2.152
		c-7.045-3.756-15.517-3.756-22.563,0l-3.937,2.094c-1.096-5.752,0.188-11.988,4.312-16.281
		C208.189,1037.58,212.075,1035.953,215.978,1035.952L215.978,1035.952z"/>
	<path style="fill:#FFFFFF;" d="M215.978,1068.294c1.3,0,2.603,0.305,3.781,0.943l29.188,15.594c2.353,1.256,5.178,1.256,7.531,0
		l3.687-2.002c3.394-1.809,6.442-1.119,8.844,0.816c2.401,1.936,3.636,4.699,2.594,8.406l-15.719,56.219h-79.781l-15.875-56.219
		c-1.042-3.701,0.314-6.473,2.719-8.406c2.401-1.934,5.355-2.617,8.75-0.816l3.781,2.002c2.328,1.223,5.109,1.223,7.437,0
		l29.281-15.594C213.375,1068.614,214.677,1068.294,215.978,1068.294L215.978,1068.294z"/>
	<path style="fill:#29A3EC;" d="M177.603,1164.327h76.656l17.344,208H160.384L177.603,1164.327z"/>
	<path style="fill:#EE746C;" d="M135.915,1388.264h160.031v48.063H135.915V1388.264z"/>
	<path style="fill:#FB9761;" d="M215.98,1039.008c2.781,0,5.574,1.168,7.84,3.52c2.957,3.066,3.855,7.531,3.051,11.648l-2.895-1.535
		c-5.022-2.68-11.06-2.68-16.081,0l-2.807,1.488c-0.781-4.1,0.133-8.543,3.073-11.604c2.267-2.359,5.037-3.52,7.818-3.52
		L215.98,1039.008z"/>
	<path style="fill:#EBFEFF;" d="M215.973,1071.86c1.184,0,2.371,0.305,3.444,0.848l26.584,14.203c2.144,1.143,4.716,1.143,6.86,0
		l3.358-1.82c3.091-1.645,5.868-1.023,8.055,0.736s3.311,4.281,2.362,7.656l-14.317,51.205h-72.664l-14.459-51.205
		c-0.949-3.367,0.284-5.896,2.476-7.656c2.187-1.76,4.878-2.383,7.97-0.736l3.444,1.82c2.121,1.113,4.653,1.113,6.774,0
		l26.669-14.203C213.602,1072.163,214.788,1071.86,215.973,1071.86L215.973,1071.86z"/>
	<path style="fill:#3CDEF6;" d="M180.79,1172.921l-6,72.469l23-14.688l8.625,13.469l-33.281,21.252l-1.063,12.623l22.188-14.154
		l8.625,13.594l-32.469,20.719l-5.438,65.531h102.031l-15.906-190.813H180.79L180.79,1172.921z"/>
	<path style="fill:#FB9761;" d="M143.009,1392.296v40h72v-40H143.009z"/>
</g>
</svg>